<mxfile host="Electron" agent="Mozilla/5.0 (Windows NT 10.0; Win64; x64) AppleWebKit/537.36 (KHTML, like Gecko) draw.io/26.2.2 Chrome/134.0.6998.178 Electron/35.1.2 Safari/537.36" version="26.2.2">
  <diagram name="Page-1" id="c9db0220-8083-56f3-ca83-edcdcd058819">
    <mxGraphModel dx="1428" dy="841" grid="1" gridSize="10" guides="1" tooltips="1" connect="1" arrows="1" fold="1" page="1" pageScale="1.5" pageWidth="826" pageHeight="1169" background="none" math="0" shadow="0">
      <root>
        <mxCell id="0" style=";html=1;" />
        <mxCell id="1" style=";html=1;" parent="0" />
        <mxCell id="pz27FSsQbYzYwMsUfF1y-2" value="&lt;font style=&quot;font-size: 18px;&quot;&gt;Online&amp;nbsp;&lt;/font&gt;&lt;div&gt;&lt;font style=&quot;font-size: 18px;&quot;&gt;Appointment&amp;nbsp;&lt;/font&gt;&lt;/div&gt;&lt;div&gt;&lt;font style=&quot;font-size: 18px;&quot;&gt;Booking&lt;/font&gt;&lt;/div&gt;&lt;div&gt;&lt;font style=&quot;font-size: 18px;&quot;&gt;V1.0&amp;nbsp;&lt;/font&gt;&lt;/div&gt;" style="ellipse;whiteSpace=wrap;html=1;aspect=fixed;fillColor=#FFBF9F;strokeColor=#d79b00;strokeWidth=3;" parent="1" vertex="1">
          <mxGeometry x="440" y="360" width="160" height="160" as="geometry" />
        </mxCell>
        <mxCell id="pz27FSsQbYzYwMsUfF1y-3" value="Patient" style="rounded=0;whiteSpace=wrap;html=1;fontSize=16;fillColor=#f8cecc;strokeColor=#b85450;strokeWidth=2;" parent="1" vertex="1">
          <mxGeometry x="130" y="230" width="190" height="60" as="geometry" />
        </mxCell>
        <mxCell id="pz27FSsQbYzYwMsUfF1y-4" value="Staff" style="rounded=0;whiteSpace=wrap;html=1;fontSize=16;fillColor=#f8cecc;strokeColor=#b85450;strokeWidth=2;" parent="1" vertex="1">
          <mxGeometry x="720" y="230" width="190" height="60" as="geometry" />
        </mxCell>
        <mxCell id="pz27FSsQbYzYwMsUfF1y-5" value="Doctor" style="rounded=0;whiteSpace=wrap;html=1;fontSize=16;fillColor=#f8cecc;strokeColor=#b85450;strokeWidth=2;" parent="1" vertex="1">
          <mxGeometry x="720" y="610" width="190" height="60" as="geometry" />
        </mxCell>
        <mxCell id="pz27FSsQbYzYwMsUfF1y-6" value="Finance" style="rounded=0;whiteSpace=wrap;html=1;fontSize=16;fillColor=#f8cecc;strokeColor=#b85450;strokeWidth=2;" parent="1" vertex="1">
          <mxGeometry x="130" y="610" width="190" height="60" as="geometry" />
        </mxCell>
        <mxCell id="pz27FSsQbYzYwMsUfF1y-8" value="" style="endArrow=classic;html=1;rounded=0;strokeWidth=2;" parent="1" source="pz27FSsQbYzYwMsUfF1y-4" target="pz27FSsQbYzYwMsUfF1y-2" edge="1">
          <mxGeometry width="50" height="50" relative="1" as="geometry">
            <mxPoint x="520" y="330" as="sourcePoint" />
            <mxPoint x="570" y="280" as="targetPoint" />
            <Array as="points">
              <mxPoint x="520" y="260" />
            </Array>
          </mxGeometry>
        </mxCell>
        <mxCell id="pz27FSsQbYzYwMsUfF1y-9" value="&lt;font style=&quot;font-size: 14px;&quot;&gt;&lt;b&gt;Create Schedule&lt;/b&gt;&lt;/font&gt;" style="edgeLabel;html=1;align=center;verticalAlign=middle;resizable=0;points=[];" parent="pz27FSsQbYzYwMsUfF1y-8" vertex="1" connectable="0">
          <mxGeometry x="0.0413" y="-2" relative="1" as="geometry">
            <mxPoint x="37" y="2" as="offset" />
          </mxGeometry>
        </mxCell>
        <mxCell id="pz27FSsQbYzYwMsUfF1y-12" value="" style="endArrow=classic;html=1;rounded=0;exitX=1;exitY=0;exitDx=0;exitDy=0;strokeWidth=2;" parent="1" source="pz27FSsQbYzYwMsUfF1y-3" edge="1">
          <mxGeometry width="50" height="50" relative="1" as="geometry">
            <mxPoint x="260" y="420" as="sourcePoint" />
            <mxPoint x="500" y="360" as="targetPoint" />
            <Array as="points">
              <mxPoint x="500" y="230" />
            </Array>
          </mxGeometry>
        </mxCell>
        <mxCell id="pz27FSsQbYzYwMsUfF1y-13" value="&lt;font style=&quot;font-size: 14px;&quot;&gt;&lt;b&gt;Schedule Appointment&lt;/b&gt;&lt;/font&gt;" style="edgeLabel;html=1;align=center;verticalAlign=middle;resizable=0;points=[];" parent="pz27FSsQbYzYwMsUfF1y-12" vertex="1" connectable="0">
          <mxGeometry x="-0.6733" y="-1" relative="1" as="geometry">
            <mxPoint x="41" y="-1" as="offset" />
          </mxGeometry>
        </mxCell>
        <mxCell id="pz27FSsQbYzYwMsUfF1y-14" value="" style="endArrow=classic;html=1;rounded=0;exitX=0;exitY=0;exitDx=0;exitDy=0;entryX=0.374;entryY=1.05;entryDx=0;entryDy=0;entryPerimeter=0;strokeWidth=2;" parent="1" source="pz27FSsQbYzYwMsUfF1y-2" target="pz27FSsQbYzYwMsUfF1y-3" edge="1">
          <mxGeometry width="50" height="50" relative="1" as="geometry">
            <mxPoint x="260" y="450" as="sourcePoint" />
            <mxPoint x="170" y="383" as="targetPoint" />
            <Array as="points">
              <mxPoint x="200" y="383" />
            </Array>
          </mxGeometry>
        </mxCell>
        <mxCell id="pz27FSsQbYzYwMsUfF1y-15" value="&lt;font style=&quot;font-size: 14px;&quot;&gt;&lt;b&gt;Schedule Notification&lt;/b&gt;&lt;/font&gt;" style="edgeLabel;html=1;align=center;verticalAlign=middle;resizable=0;points=[];" parent="pz27FSsQbYzYwMsUfF1y-14" vertex="1" connectable="0">
          <mxGeometry x="-0.0695" y="1" relative="1" as="geometry">
            <mxPoint as="offset" />
          </mxGeometry>
        </mxCell>
        <mxCell id="pz27FSsQbYzYwMsUfF1y-16" value="" style="endArrow=classic;html=1;rounded=0;exitX=0.5;exitY=1;exitDx=0;exitDy=0;entryX=1;entryY=0.5;entryDx=0;entryDy=0;strokeWidth=2;" parent="1" source="pz27FSsQbYzYwMsUfF1y-2" target="pz27FSsQbYzYwMsUfF1y-6" edge="1">
          <mxGeometry width="50" height="50" relative="1" as="geometry">
            <mxPoint x="310" y="550" as="sourcePoint" />
            <mxPoint x="390" y="590" as="targetPoint" />
            <Array as="points">
              <mxPoint x="520" y="640" />
            </Array>
          </mxGeometry>
        </mxCell>
        <mxCell id="pz27FSsQbYzYwMsUfF1y-17" value="&lt;font style=&quot;font-size: 14px;&quot;&gt;&lt;b&gt;Finance Report&lt;/b&gt;&lt;/font&gt;" style="edgeLabel;html=1;align=center;verticalAlign=middle;resizable=0;points=[];" parent="pz27FSsQbYzYwMsUfF1y-16" vertex="1" connectable="0">
          <mxGeometry x="0.525" relative="1" as="geometry">
            <mxPoint as="offset" />
          </mxGeometry>
        </mxCell>
        <mxCell id="pz27FSsQbYzYwMsUfF1y-18" value="" style="endArrow=classic;html=1;rounded=0;exitX=0.563;exitY=1.006;exitDx=0;exitDy=0;entryX=0;entryY=0.5;entryDx=0;entryDy=0;strokeWidth=2;exitPerimeter=0;" parent="1" source="pz27FSsQbYzYwMsUfF1y-2" target="pz27FSsQbYzYwMsUfF1y-5" edge="1">
          <mxGeometry width="50" height="50" relative="1" as="geometry">
            <mxPoint x="530" y="530" as="sourcePoint" />
            <mxPoint x="330" y="650" as="targetPoint" />
            <Array as="points">
              <mxPoint x="530" y="640" />
            </Array>
          </mxGeometry>
        </mxCell>
        <mxCell id="pz27FSsQbYzYwMsUfF1y-19" value="&lt;font style=&quot;font-size: 14px;&quot;&gt;&lt;b&gt;Appointment Report&lt;/b&gt;&lt;/font&gt;" style="edgeLabel;html=1;align=center;verticalAlign=middle;resizable=0;points=[];" parent="pz27FSsQbYzYwMsUfF1y-18" vertex="1" connectable="0">
          <mxGeometry x="0.525" relative="1" as="geometry">
            <mxPoint x="-27" as="offset" />
          </mxGeometry>
        </mxCell>
        <mxCell id="pz27FSsQbYzYwMsUfF1y-23" value="" style="endArrow=classic;html=1;rounded=0;entryX=1;entryY=1;entryDx=0;entryDy=0;strokeWidth=2;" parent="1" target="pz27FSsQbYzYwMsUfF1y-2" edge="1">
          <mxGeometry width="50" height="50" relative="1" as="geometry">
            <mxPoint x="800" y="610" as="sourcePoint" />
            <mxPoint x="800" y="470" as="targetPoint" />
            <Array as="points">
              <mxPoint x="800" y="497" />
            </Array>
          </mxGeometry>
        </mxCell>
        <mxCell id="pz27FSsQbYzYwMsUfF1y-24" value="&lt;font style=&quot;font-size: 14px;&quot;&gt;&lt;b&gt;Schedule Availability&lt;/b&gt;&lt;/font&gt;" style="edgeLabel;html=1;align=center;verticalAlign=middle;resizable=0;points=[];" parent="pz27FSsQbYzYwMsUfF1y-23" vertex="1" connectable="0">
          <mxGeometry x="-0.6671" y="1" relative="1" as="geometry">
            <mxPoint as="offset" />
          </mxGeometry>
        </mxCell>
        <mxCell id="pz27FSsQbYzYwMsUfF1y-25" value="" style="endArrow=classic;html=1;rounded=0;strokeWidth=2;exitX=1;exitY=0;exitDx=0;exitDy=0;" parent="1" edge="1">
          <mxGeometry width="50" height="50" relative="1" as="geometry">
            <mxPoint x="600" y="439" as="sourcePoint" />
            <mxPoint x="800" y="291" as="targetPoint" />
            <Array as="points">
              <mxPoint x="800" y="439" />
              <mxPoint x="800" y="370" />
            </Array>
          </mxGeometry>
        </mxCell>
        <mxCell id="pz27FSsQbYzYwMsUfF1y-26" value="&lt;font style=&quot;font-size: 14px;&quot;&gt;&lt;b&gt;Appointment Report&lt;/b&gt;&lt;/font&gt;" style="edgeLabel;html=1;align=center;verticalAlign=middle;resizable=0;points=[];" parent="pz27FSsQbYzYwMsUfF1y-25" vertex="1" connectable="0">
          <mxGeometry x="0.0413" y="-2" relative="1" as="geometry">
            <mxPoint x="9" y="-81" as="offset" />
          </mxGeometry>
        </mxCell>
        <mxCell id="pz27FSsQbYzYwMsUfF1y-27" value="&lt;font face=&quot;Verdana&quot; style=&quot;font-size: 16px;&quot;&gt;&lt;b&gt;Zero Level System Context Diagram â€“ Appointment Booking V1.0&lt;/b&gt;&lt;/font&gt;" style="text;html=1;align=center;verticalAlign=middle;whiteSpace=wrap;rounded=0;" parent="1" vertex="1">
          <mxGeometry x="225" y="720" width="590" height="30" as="geometry" />
        </mxCell>
        <mxCell id="pz27FSsQbYzYwMsUfF1y-28" value="Manager" style="rounded=0;whiteSpace=wrap;html=1;fontSize=16;fillColor=#f8cecc;strokeColor=#b85450;strokeWidth=2;" parent="1" vertex="1">
          <mxGeometry x="120" y="420" width="190" height="60" as="geometry" />
        </mxCell>
        <mxCell id="pz27FSsQbYzYwMsUfF1y-29" value="" style="endArrow=classic;html=1;rounded=0;strokeWidth=2;entryX=0.006;entryY=0.431;entryDx=0;entryDy=0;exitX=1;exitY=0.15;exitDx=0;exitDy=0;entryPerimeter=0;exitPerimeter=0;" parent="1" source="pz27FSsQbYzYwMsUfF1y-28" target="pz27FSsQbYzYwMsUfF1y-2" edge="1">
          <mxGeometry width="50" height="50" relative="1" as="geometry">
            <mxPoint x="110" y="569" as="sourcePoint" />
            <mxPoint x="373" y="420" as="targetPoint" />
            <Array as="points" />
          </mxGeometry>
        </mxCell>
        <mxCell id="pz27FSsQbYzYwMsUfF1y-30" value="&lt;font style=&quot;font-size: 14px;&quot;&gt;&lt;b&gt;Manage User&lt;/b&gt;&lt;/font&gt;" style="edgeLabel;html=1;align=center;verticalAlign=middle;resizable=0;points=[];" parent="pz27FSsQbYzYwMsUfF1y-29" vertex="1" connectable="0">
          <mxGeometry x="0.0413" y="-2" relative="1" as="geometry">
            <mxPoint x="-7" y="-2" as="offset" />
          </mxGeometry>
        </mxCell>
        <mxCell id="DY8fo4YmFeHWwfOobg-x-1" value="" style="endArrow=classic;html=1;rounded=0;exitX=1;exitY=0.5;exitDx=0;exitDy=0;strokeWidth=2;entryX=0.263;entryY=0.081;entryDx=0;entryDy=0;entryPerimeter=0;" edge="1" parent="1" source="pz27FSsQbYzYwMsUfF1y-3" target="pz27FSsQbYzYwMsUfF1y-2">
          <mxGeometry width="50" height="50" relative="1" as="geometry">
            <mxPoint x="330" y="240" as="sourcePoint" />
            <mxPoint x="510" y="370" as="targetPoint" />
            <Array as="points">
              <mxPoint x="482" y="260" />
            </Array>
          </mxGeometry>
        </mxCell>
        <mxCell id="DY8fo4YmFeHWwfOobg-x-2" value="&lt;font style=&quot;font-size: 14px;&quot;&gt;&lt;b style=&quot;&quot;&gt;Reschedule Appointment&lt;/b&gt;&lt;/font&gt;" style="edgeLabel;html=1;align=center;verticalAlign=middle;resizable=0;points=[];" vertex="1" connectable="0" parent="DY8fo4YmFeHWwfOobg-x-1">
          <mxGeometry x="-0.6733" y="-1" relative="1" as="geometry">
            <mxPoint x="41" y="-1" as="offset" />
          </mxGeometry>
        </mxCell>
        <mxCell id="DY8fo4YmFeHWwfOobg-x-3" value="" style="endArrow=classic;html=1;rounded=0;exitX=1;exitY=1;exitDx=0;exitDy=0;strokeWidth=2;entryX=0.188;entryY=0.131;entryDx=0;entryDy=0;entryPerimeter=0;" edge="1" parent="1" source="pz27FSsQbYzYwMsUfF1y-3" target="pz27FSsQbYzYwMsUfF1y-2">
          <mxGeometry width="50" height="50" relative="1" as="geometry">
            <mxPoint x="330" y="270" as="sourcePoint" />
            <mxPoint x="492" y="383" as="targetPoint" />
            <Array as="points">
              <mxPoint x="470" y="290" />
            </Array>
          </mxGeometry>
        </mxCell>
        <mxCell id="DY8fo4YmFeHWwfOobg-x-4" value="&lt;font style=&quot;font-size: 14px;&quot;&gt;&lt;b style=&quot;&quot;&gt;Cancel Appointment&lt;/b&gt;&lt;/font&gt;" style="edgeLabel;html=1;align=center;verticalAlign=middle;resizable=0;points=[];" vertex="1" connectable="0" parent="DY8fo4YmFeHWwfOobg-x-3">
          <mxGeometry x="-0.6733" y="-1" relative="1" as="geometry">
            <mxPoint x="41" y="-1" as="offset" />
          </mxGeometry>
        </mxCell>
        <mxCell id="DY8fo4YmFeHWwfOobg-x-5" value="" style="endArrow=classic;html=1;rounded=0;strokeWidth=2;entryX=0.75;entryY=1;entryDx=0;entryDy=0;exitX=0;exitY=1;exitDx=0;exitDy=0;" edge="1" parent="1" source="pz27FSsQbYzYwMsUfF1y-2" target="pz27FSsQbYzYwMsUfF1y-28">
          <mxGeometry width="50" height="50" relative="1" as="geometry">
            <mxPoint x="320" y="439" as="sourcePoint" />
            <mxPoint x="451" y="439" as="targetPoint" />
            <Array as="points">
              <mxPoint x="463" y="520" />
              <mxPoint x="263" y="520" />
            </Array>
          </mxGeometry>
        </mxCell>
        <mxCell id="DY8fo4YmFeHWwfOobg-x-6" value="&lt;font style=&quot;font-size: 14px;&quot;&gt;&lt;b&gt;Appointment Report&lt;/b&gt;&lt;/font&gt;" style="edgeLabel;html=1;align=center;verticalAlign=middle;resizable=0;points=[];" vertex="1" connectable="0" parent="DY8fo4YmFeHWwfOobg-x-5">
          <mxGeometry x="0.0413" y="-2" relative="1" as="geometry">
            <mxPoint x="-7" y="-2" as="offset" />
          </mxGeometry>
        </mxCell>
        <mxCell id="DY8fo4YmFeHWwfOobg-x-10" value="" style="endArrow=classic;html=1;rounded=0;strokeWidth=2;entryX=0.421;entryY=1.033;entryDx=0;entryDy=0;exitX=0.375;exitY=1;exitDx=0;exitDy=0;exitPerimeter=0;entryPerimeter=0;" edge="1" parent="1" source="pz27FSsQbYzYwMsUfF1y-2" target="pz27FSsQbYzYwMsUfF1y-28">
          <mxGeometry width="50" height="50" relative="1" as="geometry">
            <mxPoint x="473" y="537" as="sourcePoint" />
            <mxPoint x="273" y="520" as="targetPoint" />
            <Array as="points">
              <mxPoint x="500" y="560" />
              <mxPoint x="200" y="560" />
            </Array>
          </mxGeometry>
        </mxCell>
        <mxCell id="DY8fo4YmFeHWwfOobg-x-11" value="&lt;font style=&quot;font-size: 14px;&quot;&gt;&lt;b&gt;Finance Report&lt;/b&gt;&lt;/font&gt;" style="edgeLabel;html=1;align=center;verticalAlign=middle;resizable=0;points=[];" vertex="1" connectable="0" parent="DY8fo4YmFeHWwfOobg-x-10">
          <mxGeometry x="0.0413" y="-2" relative="1" as="geometry">
            <mxPoint x="-2" y="2" as="offset" />
          </mxGeometry>
        </mxCell>
      </root>
    </mxGraphModel>
  </diagram>
</mxfile>
